<?xml version="1.0" encoding="UTF-8"?>
<svg id="Layer_2" data-name="Layer 2" xmlns="http://www.w3.org/2000/svg" viewBox="0 0 440 440">
  <g id="Layer_1-2" data-name="Layer 1">
    <g>
      <rect width="440" height="440" stroke-width="0"/>
      <path d="m110.68815,318.27781c1.86225-20.17064,3.7245-40.34127,5.58675-60.51192.14708-1.58132,1.4526-2.80334,3.04018-2.84573l201.35116-5.71389c.81139-.02008,1.5834-.35383,2.15391-.93113l11.83539-11.98871c.58027-.58766.90542-1.38041.90494-2.20628v-35.96236c0-1.73274-1.40467-3.1374-3.13739-3.13741h-130.18176c-.79916-.00002-1.56821.30493-2.15019.8526l-43.03743,40.532c-.58199.54767-1.35103.85261-2.15019.8526h-23.67077c-1.73274.00519-3.1416-1.39526-3.14678-3.12801-.00247-.82756.32212-1.62259.9031-2.21194l59.18442-59.93978c.57328-.57996,1.34984-.91393,2.16514-.93113l177.5869-5.71389c.84257.0035,1.65116-.33206,2.24367-.93112l11.83539-11.98871c.58027-.58766.90542-1.38041.90494-2.20628v-35.95863c0-1.73274-1.40464-3.13741-3.13739-3.13743-.00374,0-.00747,0-.01121.00002h-213.02201c-.84321-.00294-1.65203.33407-2.24368.93486l-106.49979,107.88339c-.58028.58766-.90544,1.38041-.90495,2.20628v107.88339c0,1.73274,1.40466,3.13741,3.1374,3.13741h35.64452c.79013-.03666,1.5376-.36902,2.0941-.93113l11.83165-11.98871c.51058-.51549.82645-1.19219.89373-1.91461" fill="#fff" stroke-width="0"/>
    </g>
  </g>
</svg>