<?xml version="1.0" standalone="no"?>
<!DOCTYPE svg PUBLIC "-//W3C//DTD SVG 20010904//EN"
 "http://www.w3.org/TR/2001/REC-SVG-20010904/DTD/svg10.dtd">
<svg version="1.0" xmlns="http://www.w3.org/2000/svg"
 width="700.000000pt" height="700.000000pt" viewBox="0 0 700.000000 700.000000"
 preserveAspectRatio="xMidYMid meet">
<metadata>
Created by potrace 1.14, written by Peter Selinger 2001-2017
</metadata>
<g transform="translate(0.000000,700.000000) scale(0.100000,-0.100000)"
fill="#000000" stroke="none">
<path d="M0 3500 l0 -3500 3500 0 3500 0 0 3500 0 3500 -3500 0 -3500 0 0
-3500z m6078 1718 c9 -9 12 -94 12 -321 l0 -310 -97 -99 c-54 -55 -105 -104
-114 -109 -9 -5 -653 -29 -1430 -54 -778 -24 -1423 -48 -1435 -52 -11 -5 -235
-225 -497 -490 -483 -489 -499 -507 -465 -541 9 -9 73 -12 224 -12 l213 0 355
335 356 335 1052 0 c964 0 1053 -1 1070 -17 17 -15 18 -38 18 -321 l0 -305
-109 -111 -110 -111 -1468 -41 c-807 -23 -1536 -43 -1620 -45 -118 -3 -156 -7
-167 -19 -11 -11 -26 -135 -60 -508 -26 -272 -50 -501 -55 -510 -5 -9 -54 -61
-109 -114 l-99 -98 -301 0 c-260 0 -303 2 -316 16 -14 14 -16 109 -16 895 l0
879 846 857 c466 472 854 864 862 871 23 17 3442 18 3460 0z"/>
</g>
</svg>
